# xmcd
#
# Track frame offsets:
#	150
#	3390
#	15285
#	16700
#	37107
#	39247
#	55228
#	58787
#	94480
#	141278
#	147948
#	162267
#	185329
#	188070
#	215910
#	228928
#	231234
#	295743
#	299515
#
# Disc length: 4213 seconds
#
# Revision: 1
# Processed by: cddbd v1.5.2PL0 Copyright (c) Steve Scherf et al.
# Submitted via: EZCDAudioConverter 8.2.1.1
#
DISCID=10107313
DTITLE=Ricky Skaggs and Bruce Hornsby - Cluck Ol'hen [Live]
DYEAR=2013
DGENRE=Country
TTITLE0=Intro: How Mountain Girls Can Love
TTITLE1=How Mountain Girls Can Love
TTITLE2=Intro: Toy Heart
TTITLE3=Toy Heart
TTITLE4=Intro: Bluegrass Breakdown
TTITLE5=Bluegrass Breakdown
TTITLE6=Intro: Darling Corey
TTITLE7=Darling Corey
TTITLE8=The Way It Is
TTITLE9=Intro: The Breaded Spoon
TTITLE10=The Breaded Spoon
TTITLE11=Gulf Of Mexico Fishing Boat Blues
TTITLE12=Intro: Sally Jo
TTITLE13=Sally Jo
TTITLE14=Little Maggie
TTITLE15=Intro: White Wheeled Limosine
TTITLE16=White Wheeled Limosine
TTITLE17=Intro: Cluck Ol'hen
TTITLE18=Cluck Ol'hen
EXTD=
EXTT0=
EXTT1=
EXTT2=
EXTT3=
EXTT4=
EXTT5=
EXTT6=
EXTT7=
EXTT8=
EXTT9=
EXTT10=
EXTT11=
EXTT12=
EXTT13=
EXTT14=
EXTT15=
EXTT16=
EXTT17=
EXTT18=
PLAYORDER=
